<svg xmlns="http://www.w3.org/2000/svg" width="12.063" height="16" viewBox="0 0 12.063 16"><defs><style>.a{fill:#fff;}</style></defs><g transform="translate(0)"><path class="a" d="M11.594,2.844H10.186V2.375a.469.469,0,0,0-.469-.469H8.227a2.219,2.219,0,0,0-4.394,0H2.343a.469.469,0,0,0-.469.469v.469H.469A.469.469,0,0,0,0,3.312V15.531A.469.469,0,0,0,.469,16H11.594a.469.469,0,0,0,.469-.469V3.312a.469.469,0,0,0-.469-.469Zm-8.782,0H4.287a.469.469,0,0,0,.467-.51c0-.039-.005-.078-.005-.115a1.281,1.281,0,1,1,2.562,0c0,.037,0,.076-.005.115a.469.469,0,0,0,.467.51H9.249v.969H2.811Zm8.314,12.219H.938V3.781h.936v.5a.469.469,0,0,0,.469.469H9.717a.469.469,0,0,0,.469-.469v-.5h.939Zm0,0"/><path class="a" d="M67.844,182H60.469a.469.469,0,0,0,0,.938h7.375a.469.469,0,0,0,0-.937Zm0,0" transform="translate(-58.125 -176.313)"/><path class="a" d="M60.469,242.937h4.844a.469.469,0,1,0,0-.937H60.469a.469.469,0,1,0,0,.937Zm0,0" transform="translate(-58.125 -234.438)"/><path class="a" d="M67.844,302H60.469a.469.469,0,0,0,0,.938h7.375a.469.469,0,0,0,0-.938Zm0,0" transform="translate(-58.125 -292.563)"/><path class="a" d="M66.625,362H60.469a.469.469,0,0,0,0,.938h6.156a.469.469,0,0,0,0-.937Zm0,0" transform="translate(-58.125 -350.688)"/><path class="a" d="M63.484,422H60.469a.469.469,0,0,0,0,.938h3.016a.469.469,0,0,0,0-.937Zm0,0" transform="translate(-58.125 -408.813)"/><path class="a" d="M177.716,51h-.047a.469.469,0,0,0,0,.938h.047a.469.469,0,0,0,0-.937Zm0,0" transform="translate(-171.662 -49.406)"/></g></svg>