<svg xmlns="http://www.w3.org/2000/svg" width="17.5" height="16.01" viewBox="0 0 17.5 16.01"><defs><style>.a{fill:#fff;}</style></defs><g transform="translate(0 0)"><path class="a" d="M14.153,8.378V4.5a2.422,2.422,0,0,0-2.428-2.41h-.244V1.185A1.192,1.192,0,0,0,10.287,0H3.867A1.192,1.192,0,0,0,2.672,1.185v.906H2.428A2.422,2.422,0,0,0,0,4.5v5.773a2.422,2.422,0,0,0,2.428,2.411H9.815a3.858,3.858,0,1,0,4.339-4.308ZM3.7,1.185a.169.169,0,0,1,.169-.168h6.42a.169.169,0,0,1,.17.168v.906H3.7ZM2.428,3.109h9.3a1.4,1.4,0,0,1,1.4,1.393v.8H8.7V5.28A1.079,1.079,0,0,0,7.615,4.206H6.539A1.079,1.079,0,0,0,5.458,5.28v.026H1.026V4.5a1.4,1.4,0,0,1,1.4-1.393ZM6.483,5.28a.056.056,0,0,1,.056-.056H7.615a.056.056,0,0,1,.056.056V6.835a.59.59,0,0,1-.592.587h0a.59.59,0,0,1-.592-.587Zm-5.457,5V6.323H5.458v.512a1.613,1.613,0,0,0,1.617,1.6h0A1.613,1.613,0,0,0,8.7,6.835V6.323h4.432V8.378a3.855,3.855,0,0,0-3.313,3.29H2.428a1.4,1.4,0,0,1-1.4-1.393Zm12.615,4.717a2.815,2.815,0,1,1,2.834-2.815,2.828,2.828,0,0,1-2.834,2.815Zm0,0"/><path class="a" d="M351.361,321.491,350,322.846l-.321-.319a.516.516,0,0,0-.725,0,.506.506,0,0,0,0,.72l.379.376a.95.95,0,0,0,1.334,0l1.423-1.412a.506.506,0,0,0,0-.719A.515.515,0,0,0,351.361,321.491Zm0,0" transform="translate(-336.877 -310.443)"/></g></svg>